<svg width="28" height="62" viewBox="0 0 28 62" fill="none" xmlns="http://www.w3.org/2000/svg">
<g clip-path="url(#clip0)">
<path d="M14.08 41.438C6.72 41.438 0.480001 35.3165 0.480001 28.0963V13.8127C0.480001 6.59246 6.72 0.470937 14.08 0.470937C21.44 0.470937 27.68 6.59246 27.68 13.8127V28.2532C27.52 35.4735 21.44 41.438 14.08 41.438Z" stroke="white" stroke-width="0.5" stroke-miterlimit="10"/>
<path d="M46.4 41.2811C39.04 41.2811 32.8 35.1595 32.8 27.9393V13.6557C32.8 6.43548 39.04 0.313965 46.4 0.313965C53.76 0.313965 60 6.43548 60 13.6557V28.0962C59.84 35.3165 53.76 41.2811 46.4 41.2811Z" stroke="white" stroke-width="0.5" stroke-miterlimit="10"/>
<path d="M15.04 50.2279C15.6586 50.2279 16.16 49.7359 16.16 49.1291C16.16 48.5223 15.6586 48.0304 15.04 48.0304C14.4214 48.0304 13.92 48.5223 13.92 49.1291C13.92 49.7359 14.4214 50.2279 15.04 50.2279Z" fill="white"/>
<path d="M15.04 62.0001C15.6586 62.0001 16.16 61.5082 16.16 60.9013C16.16 60.2945 15.6586 59.8026 15.04 59.8026C14.4214 59.8026 13.92 60.2945 13.92 60.9013C13.92 61.5082 14.4214 62.0001 15.04 62.0001Z" fill="white"/>
<path d="M15.04 56.5064C16.1888 56.5064 17.12 55.5929 17.12 54.4659C17.12 53.339 16.1888 52.4254 15.04 52.4254C13.8913 52.4254 12.96 53.339 12.96 54.4659C12.96 55.5929 13.8913 56.5064 15.04 56.5064Z" fill="white"/>
<ellipse cx="14.4995" cy="18.5" rx="1.5" ry="2.5" fill="white"/>
</g>
<defs>
<clipPath id="clip0">
<rect width="28" height="62" fill="white"/>
</clipPath>
</defs>
</svg>
